<?xml version="1.0" encoding="utf-8"?>
<!-- Generator: Adobe Illustrator 16.0.0, SVG Export Plug-In . SVG Version: 6.00 Build 0)  -->
<!DOCTYPE svg PUBLIC "-//W3C//DTD SVG 1.1//EN" "http://www.w3.org/Graphics/SVG/1.1/DTD/svg11.dtd">
<svg version="1.1" id="Layer_1" xmlns="http://www.w3.org/2000/svg" xmlns:xlink="http://www.w3.org/1999/xlink" x="0px" y="0px"
	 width="36px" height="36px" viewBox="0 0 36 36" enable-background="new 0 0 36 36" xml:space="preserve">
<path fill="#FFFFFF" d="M6.407,9.104l1.131-0.63C7.139,8.675,6.762,8.89,6.407,9.104z"/>
<path fill="#807F83" d="M28.816,18.491c-3.131-0.324-5.075-2.715-5.075-2.715s-0.37-2.793-1.187-4.575
	c-0.747-1.629-4.909-3.123-9.051-3.367c-1.175-0.288-2.812-0.5-4.317-0.036c-0.323,0.1-0.63,0.215-0.927,0.34
	c0,0.006-0.071,7.472-2.741,5.163c-2.02-1.746-2.597-1.861-2.741-1.92l-0.04,0.021c0.009,0.71,1.61,1.986,2.236,3.239
	c0.81,1.62,0.486,3.402,0.486,3.402s-0.621,3.043,2.8,5.67c3.421,2.627,1.574,9.396,4.166,5.994
	c0.421-0.553,0.786-1.084,1.109-1.593c0.743,0.474,1.259,0.745,1.259,0.745s7.215,1.62,11.163,1.781
	c3.948,0.162,3.403-2.43,5.037-3.402c1.633-0.972,1.633-3.564,2.178-5.346C33.717,20.111,31.947,18.815,28.816,18.491z"/>
<path fill="#FFFFFF" d="M2.741,11.372c-0.001,0-0.002,0-0.002,0c-0.019,0.004-0.002,0.032-0.002,0.032S2.737,11.391,2.741,11.372z"
	/>
<path fill="#FFFFFF" d="M2.778,11.381c0.144,0.06,0.721,0.175,2.741,1.92C8.189,15.61,8.26,8.145,8.26,8.139v0L8.258,8.14"/>
<path fill="#FFFFFF" d="M7.542,8.529c0.022,0.598,0.159,5.935-2.082,3.998c-1.357-1.173-2.032-1.519-2.368-1.572"/>
<polyline fill="#FFFFFF" points="2.737,11.404 2.738,11.403 2.778,11.381 "/>
<path fill="#807F83" d="M3.093,10.955c0.336,0.053,1.011,0.399,2.368,1.572c2.241,1.937,2.104-3.4,2.082-3.998
	C7.541,8.494,7.54,8.473,7.54,8.473l0,0L7.539,8.474l-1.131,0.63l-2.816,1.569l-0.504,0.281C3.089,10.954,3.091,10.954,3.093,10.955
	z"/>
<path fill="#FFFFFF" d="M19.654,14.966c0,0-0.851-0.676-1.313,0.069c-0.462,0.746-0.991,1.398-0.991,1.398s1.893,0.135,2.407,0.072
	C20.271,16.442,19.654,14.966,19.654,14.966z"/>
</svg>
