<?xml version="1.0" encoding="utf-8"?>
<!-- Generator: Adobe Illustrator 16.0.0, SVG Export Plug-In . SVG Version: 6.00 Build 0)  -->
<!DOCTYPE svg PUBLIC "-//W3C//DTD SVG 1.1//EN" "http://www.w3.org/Graphics/SVG/1.1/DTD/svg11.dtd">
<svg version="1.1" id="Layer_1" xmlns="http://www.w3.org/2000/svg" xmlns:xlink="http://www.w3.org/1999/xlink" x="0px" y="0px"
	 width="225.904px" height="111.888px" viewBox="0 0 225.904 111.888" enable-background="new 0 0 225.904 111.888"
	 xml:space="preserve">
<g>
	<path fill="#9E1F63" d="M2.591,84.116h5.076c2.745,0,4.726,0.253,5.938,0.76c1.214,0.508,2.171,1.328,2.871,2.461
		c0.701,1.134,1.051,2.493,1.051,4.076c0,1.755-0.459,3.213-1.375,4.375c-0.918,1.162-2.162,1.972-3.734,2.427
		c-0.923,0.263-2.604,0.394-5.042,0.394v10.646H2.591V84.116z M7.376,93.942h1.521c1.196,0,2.027-0.086,2.495-0.257
		c0.467-0.172,0.834-0.454,1.103-0.849c0.267-0.395,0.401-0.872,0.401-1.432c0-0.973-0.376-1.681-1.128-2.127
		c-0.547-0.331-1.562-0.497-3.042-0.497H7.376V93.942z"/>
	<path fill="#242261" d="M33.38,84.116h4.853l9.669,25.139h-4.974l-1.967-5.178H30.703l-2.045,5.178h-4.974L33.38,84.116z
		 M35.836,90.78l-3.373,8.631h6.726L35.836,90.78z"/>
	<path fill="#242261" d="M78.31,88.218l-3.37,3.332c-2.132-2.256-4.618-3.384-7.457-3.384c-2.476,0-4.548,0.82-6.218,2.461
		c-1.671,1.641-2.506,3.635-2.506,5.981c0,2.427,0.866,4.483,2.6,6.17c1.734,1.686,3.873,2.529,6.416,2.529
		c1.653,0,3.048-0.348,4.183-1.043c1.136-0.694,2.051-1.783,2.746-3.264h-7.28v-4.495h12.646l0.034,1.06
		c0,2.199-0.569,4.284-1.709,6.255c-1.14,1.972-2.614,3.476-4.426,4.512s-3.937,1.556-6.375,1.556c-2.609,0-4.937-0.567-6.98-1.701
		c-2.046-1.133-3.664-2.748-4.854-4.845c-1.191-2.096-1.786-4.358-1.786-6.784c0-3.327,1.099-6.221,3.298-8.682
		c2.609-2.929,6.004-4.393,10.186-4.393c2.188,0,4.232,0.404,6.136,1.213C75.199,85.38,76.771,86.554,78.31,88.218z"/>
	<path fill="#242261" d="M88.013,84.116h13.724v4.682h-8.973v4.547h8.973v4.597h-8.973v6.614h8.973v4.699H88.013V84.116z"/>
	<path fill="#9E1F63" d="M107.791,84.116h4.92l6.325,17.858l6.418-17.858h4.912l-9.058,25.139h-4.614L107.791,84.116z"/>
	<path fill="#242261" d="M145.373,84.116h4.854l9.669,25.139h-4.974l-1.967-5.178h-10.258l-2.045,5.178h-4.974L145.373,84.116z
		 M147.83,90.78l-3.373,8.631h6.726L147.83,90.78z"/>
	<path fill="#242261" d="M166.924,84.116h4.802v16.256c0,1.4,0.123,2.391,0.368,2.972c0.244,0.58,0.649,1.044,1.213,1.392
		c0.564,0.347,1.245,0.521,2.042,0.521c0.844,0,1.569-0.193,2.18-0.58c0.609-0.388,1.03-0.88,1.265-1.478
		c0.233-0.598,0.351-1.738,0.351-3.424V84.116h4.802v14.987c0,2.529-0.143,4.284-0.427,5.264c-0.285,0.98-0.829,1.926-1.633,2.837
		c-0.803,0.912-1.729,1.587-2.777,2.025c-1.048,0.438-2.267,0.658-3.656,0.658c-1.823,0-3.41-0.419-4.76-1.257
		c-1.351-0.837-2.316-1.885-2.896-3.145c-0.582-1.259-0.872-3.386-0.872-6.383V84.116z"/>
	<path fill="#242261" d="M192.999,84.116h4.785v20.576h6.973v4.563h-11.758V84.116z"/>
	<path fill="#242261" d="M209.419,84.116h13.895v4.717h-4.58v20.422h-4.854V88.833h-4.461V84.116z"/>
</g>
<g>
	<g>
		<path fill="#FFFFFF" d="M107.818,8.394v9.387c0,1.941-1.599,3.52-3.565,3.52H93.094v32.968c0.055,0.02,0.13,0.035,0.224,0.035
			h39.27c0.094,0,0.17-0.016,0.225-0.035V8.428c-0.055-0.018-0.131-0.034-0.225-0.034H107.818z M112.952,47.489
			c-7.4,0-13.42-6.021-13.42-13.421c0-7.401,6.021-13.421,13.42-13.421c7.401,0,13.422,6.02,13.422,13.421
			C126.374,41.468,120.353,47.489,112.952,47.489z"/>
		<path fill="#242261" d="M132.587,2.021h-28.294v0.002c-0.014,0-0.027-0.002-0.04-0.002h-4.69l-12.84,11.256v4.487v0.016v36.751
			c0,3.388,2.958,6.144,6.594,6.144h39.27c3.637,0,6.594-2.756,6.594-6.144V8.165C139.181,4.777,136.224,2.021,132.587,2.021z
			 M132.812,54.268c-0.055,0.02-0.131,0.035-0.225,0.035h-39.27c-0.093,0-0.169-0.016-0.224-0.035V21.3h11.159
			c1.966,0,3.565-1.579,3.565-3.52V8.394h24.769c0.094,0,0.17,0.016,0.225,0.034V54.268z M94.504,14.929l6.943-6.086v6.086H94.504z"
			/>
		<polygon fill="#FFFFFF" points="94.504,14.929 101.447,14.929 101.447,8.843 		"/>
		<path fill="#FFFFFF" d="M112.952,26.309c-4.277,0-7.758,3.481-7.758,7.758c0,4.277,3.481,7.757,7.758,7.757
			c4.278,0,7.758-3.48,7.758-7.757C120.71,29.79,117.23,26.309,112.952,26.309z M112.952,39.495c-2.993,0-5.427-2.436-5.427-5.428
			c0-2.993,2.434-5.428,5.427-5.428s5.428,2.435,5.428,5.428C118.38,37.059,115.945,39.495,112.952,39.495z"/>
		<path fill="#242261" d="M112.952,20.646c-7.4,0-13.42,6.02-13.42,13.421c0,7.401,6.021,13.421,13.42,13.421
			c7.401,0,13.422-6.021,13.422-13.421C126.374,26.666,120.353,20.646,112.952,20.646z M121.504,25.259
			c0.138,0.138,0.138,0.363,0,0.501l-1.585,1.585c-0.068,0.069-0.159,0.103-0.25,0.103c-0.091,0-0.181-0.033-0.25-0.103
			c-0.138-0.138-0.138-0.363,0-0.501l1.585-1.584C121.141,25.121,121.367,25.121,121.504,25.259z M120.71,34.067
			c0,4.277-3.48,7.757-7.758,7.757c-4.277,0-7.758-3.48-7.758-7.757c0-4.277,3.481-7.758,7.758-7.758
			C117.23,26.309,120.71,29.79,120.71,34.067z M117.581,22.637c0.181,0.075,0.267,0.283,0.191,0.462l-0.858,2.072
			c-0.056,0.136-0.188,0.219-0.328,0.219c-0.043,0-0.09-0.009-0.134-0.027c-0.18-0.074-0.267-0.282-0.191-0.464l0.858-2.07
			C117.193,22.648,117.399,22.563,117.581,22.637z M112.952,21.767c0.195,0,0.355,0.158,0.355,0.354v2.242
			c0,0.195-0.16,0.355-0.355,0.355s-0.354-0.16-0.354-0.355V22.12C112.599,21.925,112.757,21.767,112.952,21.767z M108.325,22.637
			c0.181-0.074,0.388,0.011,0.462,0.191l0.857,2.072c0.076,0.18-0.01,0.388-0.191,0.462c-0.043,0.018-0.09,0.027-0.134,0.027
			c-0.14,0-0.272-0.082-0.329-0.219l-0.857-2.072C108.059,22.919,108.145,22.712,108.325,22.637z M104.401,25.258
			c0.138-0.137,0.363-0.137,0.501,0l1.585,1.585c0.138,0.139,0.138,0.363,0,0.501c-0.069,0.069-0.16,0.103-0.251,0.103
			c-0.09,0-0.18-0.033-0.249-0.103l-1.586-1.585C104.263,25.622,104.263,25.396,104.401,25.258z M101.78,29.183
			c0.074-0.18,0.281-0.267,0.462-0.192l2.071,0.859c0.179,0.074,0.267,0.282,0.191,0.462c-0.056,0.137-0.188,0.219-0.326,0.219
			c-0.045,0-0.091-0.009-0.136-0.027l-2.072-0.858C101.791,29.57,101.704,29.364,101.78,29.183z M100.769,34.126
			c0-0.196,0.159-0.355,0.354-0.355h2.243c0.195,0,0.353,0.159,0.353,0.355c0,0.195-0.158,0.353-0.353,0.353h-2.243
			C100.928,34.479,100.769,34.322,100.769,34.126z M102.106,38.658c-0.139,0-0.271-0.083-0.328-0.22
			c-0.074-0.18,0.012-0.387,0.192-0.462l2.072-0.858c0.18-0.074,0.388,0.01,0.462,0.192c0.076,0.181-0.012,0.387-0.191,0.462
			l-2.071,0.857C102.198,38.649,102.151,38.658,102.106,38.658z M104.651,42.466c-0.09,0-0.182-0.034-0.251-0.103
			c-0.138-0.139-0.138-0.364,0-0.501l1.585-1.585c0.139-0.137,0.363-0.137,0.501,0c0.138,0.138,0.138,0.364,0,0.501l-1.585,1.585
			C104.833,42.432,104.741,42.466,104.651,42.466z M108.459,45.012c-0.044,0-0.09-0.01-0.135-0.027
			c-0.182-0.075-0.267-0.282-0.192-0.464l0.858-2.07c0.075-0.181,0.282-0.266,0.462-0.191c0.181,0.075,0.268,0.282,0.191,0.462
			l-0.858,2.071C108.73,44.928,108.599,45.012,108.459,45.012z M112.952,46.132c-0.195,0-0.354-0.159-0.354-0.354v-2.241
			c0-0.196,0.158-0.354,0.354-0.354s0.355,0.158,0.355,0.354v2.241C113.307,45.973,113.147,46.132,112.952,46.132z M117.581,44.984
			c-0.044,0.019-0.09,0.027-0.136,0.027c-0.138,0-0.27-0.083-0.326-0.22l-0.858-2.071c-0.074-0.18,0.011-0.387,0.191-0.462
			c0.182-0.075,0.387,0.01,0.462,0.191l0.858,2.07C117.847,44.703,117.762,44.909,117.581,44.984z M121.505,42.362
			c-0.069,0.069-0.16,0.104-0.25,0.104c-0.091,0-0.18-0.034-0.249-0.104l-1.585-1.585c-0.139-0.139-0.139-0.363,0-0.5
			c0.137-0.138,0.361-0.138,0.5,0l1.585,1.585C121.643,42,121.643,42.223,121.505,42.362z M124.126,38.44
			c-0.057,0.136-0.189,0.218-0.327,0.218c-0.045,0-0.091-0.009-0.135-0.027l-2.072-0.857c-0.179-0.075-0.266-0.282-0.191-0.462
			c0.075-0.182,0.281-0.267,0.462-0.192l2.072,0.859C124.114,38.051,124.2,38.258,124.126,38.44z M124.958,34.126
			c0,0.195-0.158,0.353-0.354,0.353h-2.242c-0.195,0-0.354-0.157-0.354-0.353c0-0.196,0.159-0.355,0.354-0.355h2.242
			C124.8,33.771,124.958,33.93,124.958,34.126z M124.126,29.183c0.074,0.181-0.012,0.387-0.191,0.462l-2.072,0.858
			c-0.043,0.018-0.088,0.027-0.135,0.027c-0.139,0-0.27-0.082-0.327-0.219c-0.075-0.182,0.012-0.388,0.191-0.463l2.072-0.858
			C123.845,28.917,124.051,29.003,124.126,29.183z"/>
		<path fill="#FFFFFF" d="M112.952,30.056c-2.212,0-4.011,1.8-4.011,4.012c0,2.213,1.799,4.011,4.011,4.011s4.012-1.798,4.012-4.011
			C116.964,31.855,115.165,30.056,112.952,30.056z"/>
		<path fill="#242261" d="M112.952,28.639c-2.993,0-5.427,2.435-5.427,5.428c0,2.992,2.434,5.428,5.427,5.428
			s5.428-2.436,5.428-5.428C118.38,31.074,115.945,28.639,112.952,28.639z M112.952,38.079c-2.212,0-4.011-1.798-4.011-4.011
			c0-2.212,1.799-4.012,4.011-4.012s4.012,1.8,4.012,4.012C116.964,36.281,115.165,38.079,112.952,38.079z"/>
		<path fill="#FFFFFF" d="M112.599,24.362c0,0.195,0.158,0.355,0.354,0.355s0.355-0.16,0.355-0.355V22.12
			c0-0.195-0.16-0.354-0.355-0.354s-0.354,0.158-0.354,0.354V24.362z"/>
		<path fill="#FFFFFF" d="M113.307,43.536c0-0.196-0.16-0.354-0.355-0.354s-0.354,0.158-0.354,0.354v2.241
			c0,0.196,0.158,0.354,0.354,0.354s0.355-0.159,0.355-0.354V43.536z"/>
		<path fill="#FFFFFF" d="M122.362,33.771c-0.195,0-0.354,0.159-0.354,0.355c0,0.195,0.159,0.353,0.354,0.353h2.242
			c0.195,0,0.354-0.157,0.354-0.353c0-0.196-0.158-0.355-0.354-0.355H122.362z"/>
		<path fill="#FFFFFF" d="M103.367,34.479c0.195,0,0.353-0.157,0.353-0.353c0-0.196-0.158-0.355-0.353-0.355h-2.243
			c-0.195,0-0.354,0.159-0.354,0.355c0,0.195,0.159,0.353,0.354,0.353H103.367z"/>
		<path fill="#9E1F63" d="M119.418,26.843c-0.138,0.139-0.138,0.363,0,0.501c0.069,0.069,0.16,0.103,0.25,0.103
			c0.091,0,0.182-0.033,0.25-0.103l1.585-1.585c0.138-0.138,0.138-0.363,0-0.501c-0.137-0.138-0.363-0.138-0.5,0L119.418,26.843z"/>
		<path fill="#FFFFFF" d="M106.487,40.778c0.138-0.138,0.138-0.364,0-0.501c-0.139-0.137-0.362-0.137-0.501,0l-1.585,1.585
			c-0.138,0.138-0.138,0.363,0,0.501c0.069,0.068,0.161,0.103,0.251,0.103c0.09,0,0.181-0.034,0.25-0.103L106.487,40.778z"/>
		<path fill="#FFFFFF" d="M119.919,40.276c-0.139-0.138-0.362-0.138-0.5,0c-0.139,0.138-0.139,0.361,0,0.5l1.585,1.585
			c0.069,0.069,0.158,0.104,0.249,0.104c0.091,0,0.181-0.034,0.25-0.104c0.138-0.139,0.138-0.363,0-0.5L119.919,40.276z"/>
		<path fill="#FFFFFF" d="M105.988,27.345c0.069,0.069,0.159,0.103,0.249,0.103c0.091,0,0.182-0.033,0.251-0.103
			c0.138-0.138,0.138-0.363,0-0.501l-1.585-1.585c-0.138-0.137-0.363-0.137-0.501,0c-0.138,0.139-0.138,0.364,0,0.501
			L105.988,27.345z"/>
		<path fill="#FFFFFF" d="M116.261,24.898c-0.075,0.182,0.011,0.39,0.191,0.464c0.044,0.019,0.09,0.027,0.134,0.027
			c0.14,0,0.271-0.083,0.328-0.219l0.858-2.072c0.075-0.179-0.01-0.387-0.191-0.462c-0.182-0.074-0.388,0.011-0.462,0.191
			L116.261,24.898z"/>
		<path fill="#FFFFFF" d="M109.645,42.721c0.076-0.18-0.01-0.387-0.191-0.462c-0.18-0.075-0.388,0.01-0.462,0.191l-0.858,2.07
			c-0.074,0.182,0.01,0.389,0.192,0.464c0.044,0.017,0.09,0.027,0.135,0.027c0.139,0,0.271-0.083,0.327-0.22L109.645,42.721z"/>
		<path fill="#FFFFFF" d="M121.592,29.849c-0.179,0.075-0.266,0.281-0.191,0.463c0.058,0.137,0.188,0.219,0.327,0.219
			c0.047,0,0.092-0.009,0.135-0.027l2.072-0.858c0.18-0.075,0.266-0.281,0.191-0.462c-0.075-0.18-0.281-0.267-0.462-0.192
			L121.592,29.849z"/>
		<path fill="#FFFFFF" d="M104.313,37.773c0.179-0.075,0.267-0.282,0.191-0.462c-0.074-0.182-0.282-0.267-0.462-0.192l-2.072,0.858
			c-0.18,0.075-0.266,0.282-0.192,0.462c0.057,0.137,0.189,0.22,0.328,0.22c0.045,0,0.091-0.009,0.136-0.027L104.313,37.773z"/>
		<path fill="#FFFFFF" d="M123.935,37.977l-2.072-0.859c-0.181-0.074-0.387,0.01-0.462,0.192c-0.075,0.181,0.012,0.387,0.191,0.462
			l2.072,0.857c0.044,0.019,0.09,0.027,0.135,0.027c0.138,0,0.271-0.082,0.327-0.218C124.2,38.258,124.114,38.051,123.935,37.977z"
			/>
		<path fill="#FFFFFF" d="M101.97,29.645l2.072,0.858c0.044,0.019,0.091,0.027,0.136,0.027c0.139,0,0.27-0.082,0.326-0.219
			c0.076-0.18-0.012-0.388-0.191-0.462l-2.071-0.859c-0.181-0.074-0.388,0.012-0.462,0.192
			C101.704,29.364,101.791,29.57,101.97,29.645z"/>
		<path fill="#FFFFFF" d="M116.915,42.45c-0.075-0.181-0.281-0.266-0.462-0.191c-0.18,0.075-0.266,0.282-0.191,0.462l0.858,2.071
			c0.057,0.136,0.188,0.22,0.326,0.22c0.045,0,0.091-0.009,0.136-0.027c0.181-0.075,0.267-0.282,0.192-0.464L116.915,42.45z"/>
		<path fill="#FFFFFF" d="M108.991,25.171c0.056,0.137,0.188,0.219,0.329,0.219c0.043,0,0.09-0.009,0.134-0.027
			c0.181-0.074,0.268-0.282,0.191-0.462l-0.857-2.072c-0.075-0.18-0.282-0.266-0.462-0.191c-0.18,0.075-0.266,0.283-0.191,0.462
			L108.991,25.171z"/>
	</g>
	<polygon fill="#242261" points="115.865,30.056 118.185,28.956 117.085,31.275 	"/>
	<path fill="#FFFFFF" d="M112.952,30.056c-2.212,0-4.011,1.8-4.011,4.012c0,2.213,1.799,4.011,4.011,4.011s4.012-1.798,4.012-4.011
		C116.964,31.855,115.165,30.056,112.952,30.056z"/>
</g>
</svg>
