<?xml version="1.0" encoding="utf-8"?>
<!-- Generator: Adobe Illustrator 16.0.0, SVG Export Plug-In . SVG Version: 6.00 Build 0)  -->
<!DOCTYPE svg PUBLIC "-//W3C//DTD SVG 1.1//EN" "http://www.w3.org/Graphics/SVG/1.1/DTD/svg11.dtd">
<svg version="1.1" id="Layer_1" xmlns="http://www.w3.org/2000/svg" xmlns:xlink="http://www.w3.org/1999/xlink" x="0px" y="0px"
	 width="148.204px" height="165.59px" viewBox="0 0 148.204 165.59" enable-background="new 0 0 148.204 165.59"
	 xml:space="preserve">
<g>
	<g>
		<path fill="#FFFFFF" d="M59.618,18.088v26.483c0,5.476-4.512,9.93-10.06,9.93H18.076v93.013c0.154,0.053,0.367,0.099,0.631,0.099
			h110.792c0.265,0,0.477-0.046,0.633-0.099V18.185c-0.156-0.051-0.368-0.097-0.633-0.097H59.618z M74.102,128.388
			c-20.878,0-37.862-16.984-37.862-37.865c0-20.882,16.984-37.864,37.862-37.864c20.88,0,37.867,16.982,37.867,37.864
			C111.969,111.403,94.982,128.388,74.102,128.388z"/>
		<path fill="#242361" d="M129.499,0.111H49.671v0.005c-0.039,0-0.075-0.005-0.113-0.005H36.326L0.102,31.867v12.659v0.045v103.687
			c0,9.557,8.346,17.332,18.604,17.332h110.792c10.259,0,18.604-7.775,18.604-17.332V17.443
			C148.102,7.885,139.757,0.111,129.499,0.111z M130.131,147.514c-0.156,0.053-0.368,0.099-0.633,0.099H18.707
			c-0.264,0-0.477-0.046-0.631-0.099V54.501h31.482c5.548,0,10.06-4.454,10.06-9.93V18.088h69.881c0.265,0,0.477,0.046,0.633,0.097
			V147.514z M22.053,36.526l19.589-17.17v17.17H22.053z"/>
		<polygon fill="#FFFFFF" points="22.053,36.526 41.642,36.526 41.642,19.355 		"/>
		<path fill="#FFFFFF" d="M74.102,68.633c-12.066,0-21.887,9.821-21.887,21.889c0,12.066,9.82,21.885,21.887,21.885
			c12.068,0,21.887-9.818,21.887-21.885C95.989,78.455,86.17,68.633,74.102,68.633z M74.102,105.836
			c-8.443,0-15.311-6.872-15.311-15.313c0-8.445,6.867-15.315,15.311-15.315c8.442,0,15.313,6.87,15.313,15.315
			C89.415,98.964,82.544,105.836,74.102,105.836z"/>
		<path fill="#242361" d="M74.102,52.658c-20.878,0-37.862,16.982-37.862,37.864c0,20.881,16.984,37.865,37.862,37.865
			c20.88,0,37.867-16.984,37.867-37.865C111.969,69.641,94.982,52.658,74.102,52.658z M98.229,65.67c0.39,0.388,0.39,1.024,0,1.414
			l-4.474,4.471c-0.192,0.195-0.448,0.289-0.705,0.289c-0.256,0-0.511-0.094-0.706-0.289c-0.391-0.391-0.391-1.024,0-1.414
			l4.473-4.471C97.206,65.28,97.841,65.28,98.229,65.67z M95.989,90.522c0,12.066-9.818,21.885-21.887,21.885
			c-12.066,0-21.887-9.818-21.887-21.885c0-12.068,9.82-21.889,21.887-21.889C86.17,68.633,95.989,78.455,95.989,90.522z
			 M87.161,58.273c0.51,0.212,0.751,0.797,0.539,1.303l-2.421,5.846c-0.159,0.383-0.53,0.617-0.925,0.617
			c-0.123,0-0.253-0.024-0.378-0.077c-0.509-0.207-0.752-0.795-0.54-1.308l2.421-5.842C86.067,58.304,86.647,58.063,87.161,58.273z
			 M74.102,55.818c0.552,0,1.002,0.446,1.002,0.998v6.325c0,0.552-0.45,1.002-1.002,1.002s-0.997-0.451-0.997-1.002v-6.325
			C73.105,56.264,73.55,55.818,74.102,55.818z M61.045,58.273c0.511-0.209,1.094,0.031,1.306,0.54l2.419,5.846
			c0.214,0.508-0.029,1.096-0.54,1.306c-0.122,0.051-0.255,0.075-0.378,0.075c-0.395,0-0.769-0.231-0.928-0.617l-2.418-5.846
			C60.296,59.07,60.538,58.485,61.045,58.273z M49.977,65.668c0.391-0.388,1.023-0.388,1.414,0l4.474,4.473
			c0.388,0.39,0.388,1.023,0,1.414c-0.195,0.195-0.453,0.289-0.709,0.289c-0.255,0-0.508-0.094-0.703-0.289l-4.476-4.474
			C49.586,66.694,49.586,66.059,49.977,65.668z M42.582,76.742c0.21-0.508,0.793-0.751,1.304-0.542l5.844,2.423
			c0.506,0.209,0.754,0.795,0.54,1.303c-0.159,0.385-0.53,0.617-0.921,0.617c-0.127,0-0.258-0.024-0.383-0.077l-5.847-2.421
			C42.611,77.835,42.368,77.252,42.582,76.742z M39.73,90.688c0-0.554,0.448-1.002,1-1.002h6.327c0.552,0,0.998,0.448,0.998,1.002
			c0,0.553-0.446,0.996-0.998,0.996H40.73C40.178,91.685,39.73,91.241,39.73,90.688z M43.502,103.473
			c-0.391,0-0.764-0.233-0.926-0.619c-0.209-0.509,0.034-1.093,0.542-1.304l5.847-2.42c0.509-0.21,1.094,0.029,1.304,0.541
			c0.214,0.512-0.034,1.094-0.54,1.307l-5.844,2.418C43.76,103.448,43.629,103.473,43.502,103.473z M50.683,114.216
			c-0.256,0-0.514-0.096-0.708-0.289c-0.391-0.39-0.391-1.025,0-1.414l4.473-4.473c0.393-0.388,1.024-0.388,1.414,0
			c0.391,0.388,0.391,1.025,0,1.414l-4.473,4.473C51.194,114.12,50.936,114.216,50.683,114.216z M61.426,121.399
			c-0.125,0-0.255-0.029-0.381-0.077c-0.513-0.212-0.751-0.795-0.542-1.308l2.421-5.842c0.212-0.511,0.798-0.752,1.306-0.539
			c0.511,0.211,0.754,0.795,0.54,1.303l-2.421,5.844C62.19,121.163,61.819,121.399,61.426,121.399z M74.102,124.56
			c-0.552,0-0.997-0.447-0.997-0.999v-6.323c0-0.555,0.445-1,0.997-1s1.002,0.445,1.002,1v6.323
			C75.104,124.112,74.654,124.56,74.102,124.56z M87.161,121.322c-0.126,0.053-0.256,0.077-0.384,0.077
			c-0.39,0-0.761-0.236-0.92-0.619l-2.421-5.844c-0.21-0.508,0.031-1.092,0.54-1.303c0.513-0.213,1.093,0.028,1.306,0.539
			l2.421,5.842C87.912,120.527,87.67,121.11,87.161,121.322z M98.231,113.925c-0.194,0.195-0.45,0.291-0.705,0.291
			c-0.258,0-0.509-0.096-0.704-0.291l-4.473-4.473c-0.393-0.393-0.393-1.024,0-1.412c0.388-0.391,1.019-0.391,1.409,0l4.473,4.473
			C98.622,112.901,98.622,113.532,98.231,113.925z M105.626,102.858c-0.159,0.383-0.532,0.614-0.923,0.614
			c-0.127,0-0.258-0.024-0.38-0.077l-5.847-2.418c-0.506-0.213-0.752-0.795-0.54-1.307s0.793-0.751,1.304-0.541l5.846,2.423
			C105.595,101.761,105.836,102.345,105.626,102.858z M107.973,90.688c0,0.553-0.446,0.996-0.998,0.996h-6.323
			c-0.554,0-1.002-0.443-1.002-0.996c0-0.554,0.448-1.002,1.002-1.002h6.323C107.527,89.687,107.973,90.135,107.973,90.688z
			 M105.626,76.742c0.21,0.511-0.031,1.094-0.54,1.303l-5.846,2.421c-0.123,0.051-0.251,0.077-0.381,0.077
			c-0.393,0-0.761-0.231-0.923-0.617c-0.212-0.513,0.034-1.096,0.54-1.306l5.847-2.421C104.832,75.99,105.415,76.233,105.626,76.742
			z"/>
		<path fill="#E11668" d="M74.102,79.204c-6.241,0-11.317,5.078-11.317,11.319c0,6.244,5.076,11.316,11.317,11.316
			s11.319-5.072,11.319-11.316C85.421,84.281,80.343,79.204,74.102,79.204z"/>
		<path fill="#242361" d="M74.102,75.208c-8.443,0-15.311,6.87-15.311,15.315c0,8.441,6.867,15.313,15.311,15.313
			c8.442,0,15.313-6.872,15.313-15.313C89.415,82.077,82.544,75.208,74.102,75.208z M74.102,101.839
			c-6.241,0-11.317-5.072-11.317-11.316c0-6.241,5.076-11.319,11.317-11.319s11.319,5.078,11.319,11.319
			C85.421,96.767,80.343,101.839,74.102,101.839z"/>
		<path fill="#FFFFFF" d="M73.105,63.141c0,0.552,0.445,1.002,0.997,1.002s1.002-0.451,1.002-1.002v-6.325
			c0-0.552-0.45-0.998-1.002-0.998s-0.997,0.446-0.997,0.998V63.141z"/>
		<path fill="#FFFFFF" d="M75.104,117.237c0-0.555-0.45-1-1.002-1s-0.997,0.445-0.997,1v6.323c0,0.552,0.445,0.999,0.997,0.999
			s1.002-0.447,1.002-0.999V117.237z"/>
		<path fill="#FFFFFF" d="M100.652,89.687c-0.554,0-1.002,0.448-1.002,1.002c0,0.553,0.448,0.996,1.002,0.996h6.323
			c0.552,0,0.998-0.443,0.998-0.996c0-0.554-0.446-1.002-0.998-1.002H100.652z"/>
		<path fill="#FFFFFF" d="M47.057,91.685c0.552,0,0.998-0.443,0.998-0.996c0-0.554-0.446-1.002-0.998-1.002H40.73
			c-0.552,0-1,0.448-1,1.002c0,0.553,0.448,0.996,1,0.996H47.057z"/>
		<path fill="#E11668" d="M92.344,70.142c-0.391,0.39-0.391,1.023,0,1.414c0.195,0.195,0.45,0.289,0.706,0.289
			c0.257,0,0.513-0.094,0.705-0.289l4.474-4.471c0.39-0.39,0.39-1.026,0-1.414c-0.388-0.39-1.023-0.39-1.412,0L92.344,70.142z"/>
		<path fill="#FFFFFF" d="M55.862,109.454c0.391-0.389,0.391-1.026,0-1.414c-0.39-0.388-1.021-0.388-1.414,0l-4.473,4.473
			c-0.391,0.389-0.391,1.024,0,1.414c0.194,0.193,0.452,0.289,0.708,0.289c0.253,0,0.511-0.096,0.706-0.289L55.862,109.454z"/>
		<path fill="#FFFFFF" d="M93.758,108.04c-0.391-0.391-1.021-0.391-1.409,0c-0.393,0.388-0.393,1.02,0,1.412l4.473,4.473
			c0.195,0.195,0.446,0.291,0.704,0.291c0.255,0,0.511-0.096,0.705-0.291c0.391-0.393,0.391-1.023,0-1.412L93.758,108.04z"/>
		<path fill="#FFFFFF" d="M54.453,71.556c0.195,0.195,0.448,0.289,0.703,0.289c0.256,0,0.514-0.094,0.709-0.289
			c0.388-0.391,0.388-1.024,0-1.414l-4.474-4.473c-0.391-0.388-1.023-0.388-1.414,0c-0.391,0.39-0.391,1.026,0,1.414L54.453,71.556z
			"/>
		<path fill="#FFFFFF" d="M83.436,64.654c-0.212,0.513,0.031,1.101,0.54,1.308c0.125,0.053,0.255,0.077,0.378,0.077
			c0.395,0,0.766-0.233,0.925-0.617l2.421-5.846c0.212-0.506-0.029-1.091-0.539-1.303c-0.514-0.209-1.094,0.031-1.304,0.54
			L83.436,64.654z"/>
		<path fill="#FFFFFF" d="M64.77,114.937c0.214-0.508-0.029-1.092-0.54-1.303c-0.508-0.213-1.094,0.028-1.306,0.539l-2.421,5.842
			c-0.209,0.513,0.029,1.096,0.542,1.308c0.126,0.048,0.256,0.077,0.381,0.077c0.393,0,0.764-0.236,0.923-0.619L64.77,114.937z"/>
		<path fill="#FFFFFF" d="M98.477,78.621c-0.506,0.209-0.752,0.792-0.54,1.306c0.162,0.385,0.53,0.617,0.923,0.617
			c0.13,0,0.258-0.026,0.381-0.077l5.846-2.421c0.509-0.209,0.75-0.792,0.54-1.303c-0.212-0.508-0.795-0.751-1.303-0.542
			L98.477,78.621z"/>
		<path fill="#FFFFFF" d="M49.729,100.978c0.506-0.213,0.754-0.795,0.54-1.307c-0.21-0.512-0.795-0.751-1.304-0.541l-5.847,2.42
			c-0.508,0.211-0.751,0.795-0.542,1.304c0.162,0.386,0.535,0.619,0.926,0.619c0.127,0,0.258-0.024,0.383-0.077L49.729,100.978z"/>
		<path fill="#FFFFFF" d="M105.086,101.553l-5.846-2.423c-0.511-0.21-1.092,0.029-1.304,0.541s0.034,1.094,0.54,1.307l5.847,2.418
			c0.122,0.053,0.253,0.077,0.38,0.077c0.391,0,0.764-0.231,0.923-0.614C105.836,102.345,105.595,101.761,105.086,101.553z"/>
		<path fill="#FFFFFF" d="M43.119,78.045l5.847,2.421c0.125,0.053,0.256,0.077,0.383,0.077c0.391,0,0.762-0.231,0.921-0.617
			c0.214-0.508-0.034-1.094-0.54-1.303L43.885,76.2c-0.511-0.209-1.094,0.034-1.304,0.542
			C42.368,77.252,42.611,77.835,43.119,78.045z"/>
		<path fill="#FFFFFF" d="M85.282,114.173c-0.213-0.511-0.793-0.752-1.306-0.539c-0.509,0.211-0.75,0.795-0.54,1.303l2.421,5.844
			c0.159,0.383,0.53,0.619,0.92,0.619c0.128,0,0.258-0.024,0.384-0.077c0.51-0.212,0.751-0.795,0.542-1.308L85.282,114.173z"/>
		<path fill="#FFFFFF" d="M62.924,65.422c0.159,0.386,0.533,0.617,0.928,0.617c0.123,0,0.256-0.024,0.378-0.075
			c0.511-0.209,0.754-0.797,0.54-1.306l-2.419-5.846c-0.212-0.508-0.795-0.749-1.306-0.54c-0.508,0.212-0.749,0.797-0.539,1.303
			L62.924,65.422z"/>
	</g>
	<path fill="#E11668" d="M74.102,79.204c-6.241,0-11.317,5.078-11.317,11.319c0,6.244,5.076,11.316,11.317,11.316
		s11.319-5.072,11.319-11.316C85.421,84.281,80.343,79.204,74.102,79.204z"/>
</g>
<polygon fill="#E11668" points="79.555,81.972 88.866,76.101 82.999,85.411 "/>
</svg>
