<?xml version="1.0" encoding="utf-8"?>
<!-- Generator: Adobe Illustrator 16.0.0, SVG Export Plug-In . SVG Version: 6.00 Build 0)  -->
<!DOCTYPE svg PUBLIC "-//W3C//DTD SVG 1.1//EN" "http://www.w3.org/Graphics/SVG/1.1/DTD/svg11.dtd">
<svg version="1.1" id="Layer_1" xmlns="http://www.w3.org/2000/svg" xmlns:xlink="http://www.w3.org/1999/xlink" x="0px" y="0px"
	 width="225.904px" height="111.888px" viewBox="0 0 225.904 111.888" enable-background="new 0 0 225.904 111.888"
	 xml:space="preserve">
<g>
	<path fill="#9E1F63" d="M2.854,82.328H7.93c2.746,0,4.726,0.253,5.938,0.76c1.214,0.508,2.171,1.328,2.871,2.461
		c0.701,1.134,1.051,2.493,1.051,4.076c0,1.755-0.459,3.213-1.375,4.375c-0.917,1.162-2.162,1.972-3.734,2.427
		c-0.923,0.263-2.604,0.394-5.042,0.394v10.646H2.854V82.328z M7.639,92.154H9.16c1.196,0,2.028-0.086,2.495-0.257
		c0.467-0.172,0.834-0.454,1.103-0.849c0.267-0.395,0.401-0.872,0.401-1.432c0-0.973-0.376-1.681-1.128-2.127
		c-0.547-0.331-1.561-0.497-3.042-0.497h-1.35V92.154z"/>
	<path fill="#242261" d="M33.643,82.328h4.853l9.669,25.139h-4.974l-1.967-5.178H30.966l-2.045,5.178h-4.974L33.643,82.328z
		 M36.099,88.992l-3.373,8.631h6.726L36.099,88.992z"/>
	<path fill="#242261" d="M78.572,86.43l-3.37,3.332c-2.132-2.256-4.618-3.384-7.458-3.384c-2.475,0-4.547,0.82-6.218,2.461
		s-2.506,3.635-2.506,5.981c0,2.427,0.867,4.483,2.6,6.17c1.734,1.686,3.873,2.529,6.416,2.529c1.653,0,3.048-0.348,4.183-1.043
		c1.135-0.694,2.05-1.783,2.746-3.264h-7.28v-4.495h12.646l0.034,1.06c0,2.199-0.57,4.284-1.709,6.255
		c-1.14,1.972-2.615,3.476-4.426,4.512s-3.937,1.556-6.375,1.556c-2.609,0-4.937-0.567-6.981-1.701
		c-2.045-1.133-3.664-2.748-4.854-4.845c-1.191-2.096-1.786-4.358-1.786-6.784c0-3.327,1.099-6.221,3.298-8.682
		c2.609-2.929,6.004-4.393,10.186-4.393c2.188,0,4.232,0.404,6.135,1.213C75.462,83.592,77.034,84.766,78.572,86.43z"/>
	<path fill="#242261" d="M88.276,82.328h13.723v4.682h-8.972v4.547h8.972v4.597h-8.972v6.614h8.972v4.699H88.276V82.328z"/>
	<path fill="#9E1F63" d="M108.054,82.328h4.919l6.326,17.858l6.417-17.858h4.912l-9.057,25.139h-4.614L108.054,82.328z"/>
	<path fill="#242261" d="M145.636,82.328h4.854l9.669,25.139h-4.974l-1.967-5.178H142.96l-2.045,5.178h-4.974L145.636,82.328z
		 M148.093,88.992l-3.373,8.631h6.726L148.093,88.992z"/>
	<path fill="#242261" d="M167.187,82.328h4.802v16.256c0,1.4,0.123,2.391,0.368,2.972c0.244,0.58,0.649,1.044,1.213,1.392
		c0.564,0.347,1.245,0.521,2.042,0.521c0.844,0,1.569-0.193,2.18-0.58c0.609-0.388,1.03-0.88,1.265-1.478
		c0.233-0.598,0.351-1.738,0.351-3.424V82.328h4.802v14.987c0,2.529-0.143,4.284-0.427,5.264c-0.285,0.98-0.829,1.926-1.633,2.837
		c-0.803,0.912-1.729,1.587-2.777,2.025c-1.048,0.438-2.267,0.658-3.656,0.658c-1.823,0-3.41-0.419-4.76-1.257
		c-1.351-0.837-2.316-1.885-2.896-3.145c-0.582-1.259-0.872-3.386-0.872-6.383V82.328z"/>
	<path fill="#242261" d="M193.262,82.328h4.785v20.576h6.973v4.563h-11.758V82.328z"/>
	<path fill="#242261" d="M209.682,82.328h13.895v4.717h-4.58v20.422h-4.854V87.045h-4.461V82.328z"/>
</g>
<g>
	<g>
		<path fill="#FFFFFF" d="M107.871,11.877v10.736c0,2.22-1.829,4.025-4.078,4.025H91.03v37.708c0.063,0.021,0.149,0.04,0.256,0.04
			h44.916c0.107,0,0.193-0.019,0.257-0.04V11.916c-0.063-0.021-0.149-0.039-0.257-0.039H107.871z M113.743,56.593
			c-8.464,0-15.35-6.886-15.35-15.351c0-8.466,6.886-15.351,15.35-15.351c8.465,0,15.352,6.885,15.352,15.351
			C129.095,49.707,122.208,56.593,113.743,56.593z"/>
		<path fill="#242261" d="M136.201,4.589h-32.362v0.002c-0.016,0-0.03-0.002-0.046-0.002h-5.364L83.743,17.463v5.132v0.019v42.035
			c0,3.874,3.383,7.026,7.542,7.026h44.916c4.159,0,7.542-3.152,7.542-7.026V11.615C143.743,7.74,140.36,4.589,136.201,4.589z
			 M136.458,64.347c-0.063,0.021-0.149,0.04-0.257,0.04H91.286c-0.107,0-0.193-0.019-0.256-0.04V26.639h12.763
			c2.249,0,4.078-1.806,4.078-4.025V11.877h28.33c0.107,0,0.193,0.019,0.257,0.039V64.347z M92.643,19.352l7.941-6.961v6.961H92.643
			z"/>
		<polygon fill="#FFFFFF" points="92.643,19.352 100.584,19.352 100.584,12.391 		"/>
		<path fill="#FFFFFF" d="M113.743,32.368c-4.892,0-8.873,3.981-8.873,8.874c0,4.892,3.981,8.872,8.873,8.872
			c4.893,0,8.873-3.98,8.873-8.872C122.616,36.35,118.636,32.368,113.743,32.368z M113.743,47.45c-3.423,0-6.207-2.786-6.207-6.208
			c0-3.424,2.784-6.209,6.207-6.209s6.208,2.785,6.208,6.209C119.951,44.664,117.166,47.45,113.743,47.45z"/>
		<path fill="#242261" d="M113.743,25.892c-8.464,0-15.35,6.885-15.35,15.351c0,8.465,6.886,15.351,15.35,15.351
			c8.465,0,15.352-6.886,15.352-15.351C129.095,32.776,122.208,25.892,113.743,25.892z M123.524,31.167
			c0.158,0.157,0.158,0.415,0,0.573l-1.813,1.813c-0.078,0.079-0.182,0.117-0.286,0.117c-0.104,0-0.207-0.038-0.286-0.117
			c-0.158-0.158-0.158-0.415,0-0.573l1.813-1.813C123.109,31.009,123.367,31.009,123.524,31.167z M122.616,41.242
			c0,4.892-3.98,8.872-8.873,8.872c-4.892,0-8.873-3.98-8.873-8.872c0-4.893,3.981-8.874,8.873-8.874
			C118.636,32.368,122.616,36.35,122.616,41.242z M119.037,28.168c0.207,0.086,0.305,0.323,0.219,0.528l-0.981,2.37
			c-0.064,0.155-0.215,0.25-0.375,0.25c-0.05,0-0.103-0.01-0.153-0.031c-0.206-0.084-0.305-0.322-0.219-0.53l0.981-2.368
			C118.594,28.181,118.829,28.083,119.037,28.168z M113.743,27.173c0.224,0,0.406,0.181,0.406,0.404v2.564
			c0,0.224-0.183,0.406-0.406,0.406s-0.404-0.183-0.404-0.406v-2.564C113.339,27.354,113.52,27.173,113.743,27.173z M108.45,28.168
			c0.207-0.085,0.443,0.013,0.529,0.219l0.98,2.37c0.087,0.206-0.012,0.444-0.219,0.529c-0.05,0.021-0.104,0.03-0.153,0.03
			c-0.16,0-0.312-0.094-0.376-0.25l-0.98-2.37C108.146,28.491,108.244,28.254,108.45,28.168z M103.963,31.166
			c0.158-0.157,0.415-0.157,0.573,0l1.813,1.813c0.157,0.158,0.157,0.415,0,0.573c-0.079,0.079-0.184,0.117-0.287,0.117
			s-0.206-0.038-0.285-0.117l-1.814-1.813C103.805,31.582,103.805,31.324,103.963,31.166z M100.965,35.655
			c0.085-0.206,0.321-0.305,0.528-0.22l2.369,0.982c0.205,0.085,0.306,0.322,0.219,0.528c-0.064,0.156-0.215,0.25-0.373,0.25
			c-0.052,0-0.104-0.01-0.155-0.031l-2.37-0.981C100.977,36.099,100.878,35.862,100.965,35.655z M99.809,41.31
			c0-0.225,0.182-0.406,0.405-0.406h2.565c0.224,0,0.404,0.182,0.404,0.406c0,0.224-0.181,0.403-0.404,0.403h-2.565
			C99.99,41.713,99.809,41.533,99.809,41.31z M101.338,46.492c-0.158,0-0.31-0.095-0.375-0.251c-0.085-0.206,0.014-0.443,0.22-0.528
			l2.37-0.981c0.206-0.085,0.443,0.012,0.528,0.22c0.087,0.207-0.014,0.443-0.219,0.529l-2.369,0.98
			C101.442,46.482,101.39,46.492,101.338,46.492z M104.249,50.848c-0.104,0-0.208-0.039-0.287-0.117
			c-0.158-0.158-0.158-0.416,0-0.573l1.813-1.813c0.159-0.157,0.415-0.157,0.573,0s0.158,0.416,0,0.573l-1.813,1.813
			C104.456,50.809,104.352,50.848,104.249,50.848z M108.604,53.76c-0.051,0-0.104-0.012-0.154-0.031
			c-0.208-0.086-0.305-0.322-0.22-0.53l0.981-2.368c0.086-0.207,0.323-0.305,0.529-0.219c0.207,0.086,0.306,0.322,0.219,0.528
			l-0.981,2.369C108.914,53.664,108.764,53.76,108.604,53.76z M113.743,55.041c-0.224,0-0.404-0.182-0.404-0.405v-2.563
			c0-0.225,0.181-0.405,0.404-0.405s0.406,0.181,0.406,0.405v2.563C114.149,54.859,113.967,55.041,113.743,55.041z M119.037,53.729
			c-0.051,0.021-0.104,0.031-0.155,0.031c-0.158,0-0.309-0.096-0.373-0.251l-0.981-2.369c-0.085-0.206,0.013-0.442,0.219-0.528
			c0.208-0.086,0.443,0.012,0.529,0.219l0.981,2.368C119.342,53.406,119.244,53.643,119.037,53.729z M123.525,50.729
			c-0.079,0.079-0.183,0.118-0.286,0.118c-0.104,0-0.206-0.039-0.285-0.118l-1.813-1.813c-0.159-0.159-0.159-0.415,0-0.572
			c0.157-0.158,0.413-0.158,0.571,0l1.813,1.813C123.684,50.314,123.684,50.57,123.525,50.729z M126.523,46.243
			c-0.064,0.155-0.216,0.249-0.374,0.249c-0.052,0-0.104-0.01-0.154-0.031l-2.37-0.98c-0.205-0.086-0.305-0.322-0.219-0.529
			c0.086-0.208,0.321-0.305,0.528-0.22l2.37,0.982C126.511,45.798,126.608,46.035,126.523,46.243z M127.475,41.31
			c0,0.224-0.181,0.403-0.404,0.403h-2.563c-0.225,0-0.406-0.18-0.406-0.403c0-0.225,0.182-0.406,0.406-0.406h2.563
			C127.294,40.903,127.475,41.085,127.475,41.31z M126.523,35.655c0.085,0.207-0.013,0.443-0.219,0.528l-2.37,0.981
			c-0.05,0.021-0.102,0.031-0.154,0.031c-0.159,0-0.309-0.094-0.374-0.25c-0.086-0.208,0.014-0.444,0.219-0.529l2.37-0.981
			C126.201,35.351,126.438,35.449,126.523,35.655z"/>
		<path fill="#FFFFFF" d="M113.743,36.653c-2.53,0-4.588,2.059-4.588,4.589c0,2.531,2.058,4.588,4.588,4.588
			s4.589-2.057,4.589-4.588C118.332,38.712,116.273,36.653,113.743,36.653z"/>
		<path fill="#242261" d="M113.743,35.033c-3.423,0-6.207,2.785-6.207,6.209c0,3.422,2.784,6.208,6.207,6.208
			s6.208-2.786,6.208-6.208C119.951,37.818,117.166,35.033,113.743,35.033z M113.743,45.83c-2.53,0-4.588-2.057-4.588-4.588
			c0-2.53,2.058-4.589,4.588-4.589s4.589,2.059,4.589,4.589C118.332,43.773,116.273,45.83,113.743,45.83z"/>
		<path fill="#FFFFFF" d="M113.339,30.142c0,0.224,0.181,0.406,0.404,0.406s0.406-0.183,0.406-0.406v-2.564
			c0-0.224-0.183-0.404-0.406-0.404s-0.404,0.181-0.404,0.404V30.142z"/>
		<path fill="#FFFFFF" d="M114.149,52.072c0-0.225-0.183-0.405-0.406-0.405s-0.404,0.181-0.404,0.405v2.563
			c0,0.224,0.181,0.405,0.404,0.405s0.406-0.182,0.406-0.405V52.072z"/>
		<path fill="#FFFFFF" d="M124.507,40.903c-0.225,0-0.406,0.182-0.406,0.406c0,0.224,0.182,0.403,0.406,0.403h2.563
			c0.224,0,0.404-0.18,0.404-0.403c0-0.225-0.181-0.406-0.404-0.406H124.507z"/>
		<path fill="#FFFFFF" d="M102.779,41.713c0.224,0,0.404-0.18,0.404-0.403c0-0.225-0.181-0.406-0.404-0.406h-2.565
			c-0.224,0-0.405,0.182-0.405,0.406c0,0.224,0.182,0.403,0.405,0.403H102.779z"/>
		<path fill="#9E1F63" d="M121.139,32.979c-0.158,0.158-0.158,0.415,0,0.573c0.079,0.079,0.183,0.117,0.286,0.117
			c0.104,0,0.208-0.038,0.286-0.117l1.813-1.813c0.158-0.158,0.158-0.416,0-0.573c-0.157-0.158-0.415-0.158-0.572,0L121.139,32.979z
			"/>
		<path fill="#FFFFFF" d="M106.349,48.917c0.158-0.157,0.158-0.416,0-0.573s-0.414-0.157-0.573,0l-1.813,1.813
			c-0.158,0.157-0.158,0.415,0,0.573c0.079,0.078,0.184,0.117,0.287,0.117c0.103,0,0.207-0.039,0.286-0.117L106.349,48.917z"/>
		<path fill="#FFFFFF" d="M121.712,48.344c-0.158-0.158-0.414-0.158-0.571,0c-0.159,0.157-0.159,0.413,0,0.572l1.813,1.813
			c0.079,0.079,0.181,0.118,0.285,0.118c0.104,0,0.207-0.039,0.286-0.118c0.158-0.159,0.158-0.415,0-0.572L121.712,48.344z"/>
		<path fill="#FFFFFF" d="M105.777,33.553c0.079,0.079,0.182,0.117,0.285,0.117s0.208-0.038,0.287-0.117
			c0.157-0.158,0.157-0.415,0-0.573l-1.813-1.813c-0.158-0.157-0.415-0.157-0.573,0c-0.158,0.158-0.158,0.416,0,0.573
			L105.777,33.553z"/>
		<path fill="#FFFFFF" d="M117.527,30.755c-0.086,0.208,0.013,0.446,0.219,0.53c0.051,0.021,0.104,0.031,0.153,0.031
			c0.16,0,0.311-0.095,0.375-0.25l0.981-2.37c0.086-0.205-0.012-0.442-0.219-0.528c-0.208-0.085-0.443,0.013-0.528,0.219
			L117.527,30.755z"/>
		<path fill="#FFFFFF" d="M109.96,51.14c0.087-0.206-0.012-0.442-0.219-0.528c-0.206-0.086-0.443,0.012-0.529,0.219l-0.981,2.368
			c-0.085,0.208,0.012,0.444,0.22,0.53c0.051,0.02,0.104,0.031,0.154,0.031c0.159,0,0.31-0.096,0.374-0.251L109.96,51.14z"/>
		<path fill="#FFFFFF" d="M123.625,36.417c-0.205,0.085-0.305,0.321-0.219,0.529c0.065,0.156,0.215,0.25,0.374,0.25
			c0.053,0,0.104-0.011,0.154-0.031l2.37-0.981c0.206-0.085,0.304-0.321,0.219-0.528c-0.086-0.206-0.322-0.305-0.528-0.22
			L123.625,36.417z"/>
		<path fill="#FFFFFF" d="M103.862,45.48c0.205-0.086,0.306-0.322,0.219-0.529c-0.085-0.208-0.322-0.305-0.528-0.22l-2.37,0.981
			c-0.206,0.085-0.305,0.322-0.22,0.528c0.065,0.156,0.217,0.251,0.375,0.251c0.052,0,0.104-0.01,0.155-0.031L103.862,45.48z"/>
		<path fill="#FFFFFF" d="M126.305,45.714l-2.37-0.982c-0.207-0.085-0.442,0.012-0.528,0.22c-0.086,0.207,0.014,0.443,0.219,0.529
			l2.37,0.98c0.05,0.021,0.103,0.031,0.154,0.031c0.158,0,0.31-0.094,0.374-0.249C126.608,46.035,126.511,45.798,126.305,45.714z"/>
		<path fill="#FFFFFF" d="M101.183,36.184l2.37,0.981c0.051,0.021,0.104,0.031,0.155,0.031c0.158,0,0.309-0.094,0.373-0.25
			c0.087-0.206-0.014-0.443-0.219-0.528l-2.369-0.982c-0.207-0.085-0.443,0.014-0.528,0.22
			C100.878,35.862,100.977,36.099,101.183,36.184z"/>
		<path fill="#FFFFFF" d="M118.275,50.83c-0.086-0.207-0.321-0.305-0.529-0.219c-0.206,0.086-0.304,0.322-0.219,0.528l0.981,2.369
			c0.064,0.155,0.215,0.251,0.373,0.251c0.052,0,0.104-0.01,0.155-0.031c0.207-0.086,0.305-0.322,0.22-0.53L118.275,50.83z"/>
		<path fill="#FFFFFF" d="M109.212,31.066c0.064,0.156,0.216,0.25,0.376,0.25c0.05,0,0.104-0.01,0.153-0.03
			c0.207-0.085,0.306-0.323,0.219-0.529l-0.98-2.37c-0.086-0.206-0.322-0.304-0.529-0.219c-0.206,0.086-0.304,0.323-0.219,0.528
			L109.212,31.066z"/>
	</g>
	<polygon fill="#242261" points="117.075,36.654 119.729,35.396 118.471,38.049 	"/>
	<path fill="#FFFFFF" d="M113.743,36.653c-2.53,0-4.588,2.059-4.588,4.589c0,2.531,2.058,4.588,4.588,4.588s4.589-2.057,4.589-4.588
		C118.332,38.712,116.273,36.653,113.743,36.653z"/>
</g>
</svg>
