<?xml version="1.0" encoding="utf-8"?>
<!-- Generator: Adobe Illustrator 16.0.0, SVG Export Plug-In . SVG Version: 6.00 Build 0)  -->
<!DOCTYPE svg PUBLIC "-//W3C//DTD SVG 1.1//EN" "http://www.w3.org/Graphics/SVG/1.1/DTD/svg11.dtd">
<svg version="1.1" id="Layer_1" xmlns="http://www.w3.org/2000/svg" xmlns:xlink="http://www.w3.org/1999/xlink" x="0px" y="0px"
	 width="225.077px" height="103.02px" viewBox="0 0 225.077 103.02" enable-background="new 0 0 225.077 103.02"
	 xml:space="preserve">
<g>
	<path fill="#9E1F63" d="M2.188,77.881h5.076c2.746,0,4.726,0.253,5.938,0.76c1.214,0.508,2.171,1.328,2.871,2.461
		c0.701,1.134,1.051,2.493,1.051,4.076c0,1.755-0.459,3.213-1.375,4.375c-0.917,1.162-2.162,1.972-3.734,2.427
		c-0.923,0.263-2.604,0.394-5.042,0.394v10.646H2.188V77.881z M6.973,87.707h1.521c1.196,0,2.028-0.086,2.495-0.257
		c0.467-0.172,0.834-0.454,1.103-0.849c0.267-0.395,0.401-0.872,0.401-1.432c0-0.973-0.376-1.681-1.128-2.127
		c-0.547-0.331-1.561-0.497-3.042-0.497h-1.35V87.707z"/>
	<path fill="#242261" d="M32.977,77.881h4.853l9.669,25.139h-4.974l-1.967-5.178H30.3l-2.045,5.178h-4.974L32.977,77.881z
		 M35.433,84.545l-3.373,8.631h6.726L35.433,84.545z"/>
	<path fill="#242261" d="M77.906,81.982l-3.37,3.332c-2.132-2.256-4.618-3.384-7.458-3.384c-2.475,0-4.547,0.82-6.218,2.461
		s-2.506,3.635-2.506,5.981c0,2.427,0.867,4.483,2.6,6.17c1.734,1.686,3.873,2.529,6.416,2.529c1.653,0,3.048-0.348,4.183-1.043
		c1.135-0.694,2.05-1.783,2.746-3.264h-7.28v-4.495h12.646l0.034,1.06c0,2.199-0.57,4.284-1.709,6.255
		c-1.14,1.972-2.615,3.476-4.426,4.512s-3.937,1.556-6.375,1.556c-2.609,0-4.937-0.567-6.981-1.701
		c-2.045-1.133-3.664-2.748-4.854-4.845c-1.191-2.096-1.786-4.358-1.786-6.784c0-3.327,1.099-6.221,3.298-8.682
		c2.609-2.929,6.004-4.393,10.186-4.393c2.188,0,4.232,0.404,6.135,1.213C74.796,79.145,76.368,80.318,77.906,81.982z"/>
	<path fill="#242261" d="M87.61,77.881h13.723v4.682h-8.972v4.547h8.972v4.597h-8.972v6.614h8.972v4.699H87.61V77.881z"/>
	<path fill="#9E1F63" d="M107.388,77.881h4.919l6.326,17.858l6.417-17.858h4.912l-9.057,25.139h-4.614L107.388,77.881z"/>
	<path fill="#242261" d="M144.97,77.881h4.854l9.669,25.139h-4.974l-1.967-5.178h-10.258l-2.045,5.178h-4.974L144.97,77.881z
		 M147.427,84.545l-3.373,8.631h6.726L147.427,84.545z"/>
	<path fill="#242261" d="M166.521,77.881h4.802v16.256c0,1.4,0.123,2.391,0.368,2.972c0.244,0.58,0.649,1.044,1.213,1.392
		c0.564,0.347,1.245,0.521,2.042,0.521c0.844,0,1.569-0.193,2.18-0.58c0.609-0.388,1.03-0.88,1.265-1.478
		c0.233-0.598,0.351-1.738,0.351-3.424V77.881h4.802v14.987c0,2.529-0.143,4.284-0.427,5.264c-0.285,0.98-0.829,1.926-1.633,2.837
		c-0.803,0.912-1.729,1.587-2.777,2.025c-1.048,0.438-2.267,0.658-3.656,0.658c-1.823,0-3.41-0.419-4.76-1.257
		c-1.351-0.837-2.316-1.885-2.896-3.145c-0.582-1.259-0.872-3.386-0.872-6.383V77.881z"/>
	<path fill="#242261" d="M192.596,77.881h4.785v20.576h6.973v4.563h-11.758V77.881z"/>
	<path fill="#242261" d="M209.016,77.881h13.895v4.717h-4.58v20.422h-4.854V82.598h-4.461V77.881z"/>
</g>
<g>
	<g>
		<path fill="#FFFFFF" d="M106.924,7.299v10.754c0,2.225-1.809,4.031-4.03,4.031H90.281V59.85c0.062,0.025,0.145,0.042,0.251,0.042
			h44.387c0.106,0,0.19-0.017,0.252-0.042V7.341c-0.062-0.025-0.146-0.042-0.252-0.042H106.924z M112.726,52.083
			c-8.364,0-15.169-6.894-15.169-15.368c0-8.484,6.805-15.381,15.169-15.381s15.17,6.896,15.17,15.381
			C127.896,45.189,121.09,52.083,112.726,52.083z"/>
		<path fill="#242261" d="M134.919,0h-31.982l0,0c-0.017,0-0.033,0-0.043,0h-5.301L83.077,12.896v5.141v0.017v42.1
			c0,3.882,3.343,7.038,7.455,7.038h44.387c4.112,0,7.453-3.156,7.453-7.038V7.038C142.372,3.156,139.031,0,134.919,0z
			 M135.171,59.85c-0.062,0.025-0.146,0.042-0.252,0.042H90.532c-0.106,0-0.19-0.017-0.251-0.042V22.084h12.613
			c2.221,0,4.03-1.807,4.03-4.031V7.299h27.995c0.106,0,0.19,0.017,0.252,0.042V59.85z M91.875,14.789l7.845-6.972v6.972H91.875z"/>
		<polygon fill="#FFFFFF" points="91.875,14.789 99.72,14.789 99.72,7.817 		"/>
		<path fill="#FFFFFF" d="M112.726,27.82c-4.835,0-8.769,3.994-8.769,8.895c0,4.896,3.934,8.881,8.769,8.881s8.77-3.984,8.77-8.881
			C121.495,31.814,117.561,27.82,112.726,27.82z M112.726,42.928c-3.382,0-6.135-2.787-6.135-6.213c0-3.431,2.752-6.218,6.135-6.218
			c3.382,0,6.135,2.787,6.135,6.218C118.86,40.141,116.107,42.928,112.726,42.928z"/>
		<path fill="#242261" d="M112.726,21.334c-8.364,0-15.169,6.896-15.169,15.381c0,8.475,6.805,15.368,15.169,15.368
			s15.17-6.894,15.17-15.368C127.896,28.23,121.09,21.334,112.726,21.334z M122.392,26.619c0.153,0.162,0.153,0.414,0,0.576
			L120.6,29.01c-0.078,0.078-0.182,0.116-0.284,0.116c-0.1,0-0.206-0.038-0.282-0.116c-0.157-0.157-0.157-0.419,0-0.572l1.793-1.818
			C121.979,26.462,122.234,26.462,122.392,26.619z M121.495,36.715c0,4.896-3.935,8.881-8.77,8.881s-8.769-3.984-8.769-8.881
			c0-4.9,3.934-8.895,8.769-8.895S121.495,31.814,121.495,36.715z M117.957,23.616c0.202,0.087,0.301,0.327,0.215,0.53l-0.967,2.369
			c-0.065,0.157-0.215,0.257-0.372,0.257c-0.049,0-0.102-0.013-0.155-0.033c-0.202-0.083-0.298-0.323-0.214-0.534l0.973-2.369
			C117.52,23.633,117.751,23.533,117.957,23.616z M112.726,22.622c0.223,0,0.4,0.183,0.4,0.401v2.568c0,0.224-0.178,0.41-0.4,0.41
			s-0.4-0.187-0.4-0.41v-2.568C112.325,22.805,112.503,22.622,112.726,22.622z M107.494,23.616c0.206-0.083,0.437,0.017,0.525,0.22
			l0.967,2.373c0.086,0.207-0.012,0.447-0.214,0.53c-0.047,0.021-0.104,0.033-0.153,0.033c-0.158,0-0.307-0.1-0.372-0.257
			l-0.967-2.369C107.194,23.943,107.292,23.703,107.494,23.616z M103.06,26.619c0.157-0.157,0.413-0.157,0.566,0l1.796,1.818
			c0.153,0.153,0.153,0.415,0,0.572c-0.082,0.078-0.186,0.116-0.288,0.116c-0.1,0-0.203-0.038-0.278-0.116l-1.796-1.814
			C102.904,27.033,102.904,26.781,103.06,26.619z M100.096,31.114c0.086-0.203,0.317-0.303,0.523-0.216l2.342,0.981
			c0.202,0.083,0.3,0.323,0.219,0.526c-0.065,0.157-0.215,0.257-0.372,0.257c-0.049,0-0.106-0.013-0.153-0.033l-2.34-0.985
			C100.108,31.562,100.012,31.325,100.096,31.114z M98.956,36.776c0-0.224,0.178-0.405,0.4-0.405h2.536
			c0.219,0,0.398,0.182,0.398,0.405c0,0.229-0.18,0.402-0.398,0.402h-2.536C99.134,37.179,98.956,37.005,98.956,36.776z
			 M100.47,41.972c-0.164,0-0.309-0.1-0.374-0.257c-0.084-0.203,0.012-0.439,0.219-0.522l2.34-0.985
			c0.202-0.088,0.438,0.008,0.525,0.224c0.082,0.202-0.017,0.438-0.219,0.521l-2.342,0.986
			C100.57,41.963,100.517,41.972,100.47,41.972z M103.341,46.333c-0.1,0-0.202-0.041-0.282-0.12c-0.155-0.157-0.155-0.414,0-0.571
			l1.792-1.818c0.157-0.153,0.409-0.153,0.566,0c0.157,0.157,0.157,0.418,0,0.575l-1.792,1.814
			C103.548,46.292,103.448,46.333,103.341,46.333z M107.647,49.245c-0.049,0-0.104-0.008-0.153-0.028
			c-0.203-0.088-0.3-0.323-0.219-0.53l0.971-2.374c0.09-0.207,0.323-0.303,0.525-0.215c0.202,0.082,0.3,0.318,0.214,0.525
			l-0.967,2.378C107.956,49.154,107.805,49.245,107.647,49.245z M112.726,50.533c-0.223,0-0.4-0.182-0.4-0.409v-2.568
			c0-0.22,0.178-0.402,0.4-0.402s0.4,0.183,0.4,0.402v2.568C113.126,50.352,112.948,50.533,112.726,50.533z M117.957,49.217
			c-0.053,0.021-0.1,0.028-0.153,0.028c-0.157,0-0.305-0.091-0.367-0.244l-0.973-2.378c-0.084-0.207,0.012-0.443,0.214-0.525
			c0.207-0.088,0.441,0.008,0.527,0.215l0.971,2.374C118.258,48.894,118.159,49.129,117.957,49.217z M122.392,46.209
			c-0.075,0.083-0.182,0.124-0.282,0.124c-0.102,0-0.202-0.041-0.283-0.124l-1.788-1.811c-0.158-0.161-0.158-0.418,0-0.575
			c0.152-0.153,0.404-0.153,0.562,0l1.792,1.818C122.549,45.799,122.549,46.056,122.392,46.209z M125.355,41.719
			c-0.065,0.157-0.211,0.253-0.37,0.253c-0.052,0-0.104-0.009-0.153-0.033l-2.342-0.986c-0.202-0.083-0.301-0.319-0.215-0.521
			c0.084-0.216,0.314-0.312,0.521-0.224l2.344,0.985C125.343,41.275,125.438,41.512,125.355,41.719z M126.297,36.776
			c0,0.229-0.182,0.402-0.4,0.402h-2.534c-0.223,0-0.404-0.174-0.404-0.402c0-0.224,0.182-0.405,0.404-0.405h2.534
			C126.115,36.371,126.297,36.553,126.297,36.776z M125.355,31.114c0.083,0.211-0.013,0.447-0.215,0.53l-2.344,0.985
			c-0.05,0.021-0.101,0.033-0.153,0.033c-0.158,0-0.305-0.1-0.368-0.257c-0.086-0.203,0.013-0.443,0.215-0.53l2.342-0.978
			C125.038,30.812,125.27,30.911,125.355,31.114z"/>
		<path fill="#9E1F63" d="M112.726,32.116c-2.501,0-4.537,2.063-4.537,4.599c0,2.53,2.035,4.59,4.537,4.59
			c2.501,0,4.537-2.06,4.537-4.59C117.263,34.18,115.227,32.116,112.726,32.116z"/>
		<path fill="#242261" d="M112.726,30.497c-3.382,0-6.135,2.787-6.135,6.218c0,3.426,2.752,6.213,6.135,6.213
			c3.382,0,6.135-2.787,6.135-6.213C118.86,33.284,116.107,30.497,112.726,30.497z M112.726,41.305c-2.501,0-4.537-2.06-4.537-4.59
			c0-2.535,2.035-4.599,4.537-4.599c2.501,0,4.537,2.063,4.537,4.599C117.263,39.245,115.227,41.305,112.726,41.305z"/>
		<path fill="#FFFFFF" d="M112.325,25.592c0,0.224,0.178,0.41,0.4,0.41s0.4-0.187,0.4-0.41v-2.568c0-0.219-0.178-0.401-0.4-0.401
			s-0.4,0.183-0.4,0.401V25.592z"/>
		<path fill="#FFFFFF" d="M113.126,47.556c0-0.22-0.178-0.402-0.4-0.402s-0.4,0.183-0.4,0.402v2.568c0,0.228,0.178,0.409,0.4,0.409
			s0.4-0.182,0.4-0.409V47.556z"/>
		<path fill="#FFFFFF" d="M123.362,36.371c-0.223,0-0.404,0.182-0.404,0.405c0,0.229,0.182,0.402,0.404,0.402h2.534
			c0.219,0,0.4-0.174,0.4-0.402c0-0.224-0.182-0.405-0.4-0.405H123.362z"/>
		<path fill="#FFFFFF" d="M101.893,37.179c0.219,0,0.398-0.174,0.398-0.402c0-0.224-0.18-0.405-0.398-0.405h-2.536
			c-0.223,0-0.4,0.182-0.4,0.405c0,0.229,0.178,0.402,0.4,0.402H101.893z"/>
		<path fill="#9E1F63" d="M120.033,28.438c-0.157,0.153-0.157,0.415,0,0.572c0.076,0.078,0.183,0.116,0.282,0.116
			c0.103,0,0.206-0.038,0.284-0.116l1.792-1.814c0.153-0.162,0.153-0.414,0-0.576c-0.157-0.157-0.412-0.157-0.565,0L120.033,28.438z
			"/>
		<path fill="#FFFFFF" d="M105.418,44.398c0.157-0.157,0.157-0.418,0-0.575c-0.158-0.153-0.409-0.153-0.566,0l-1.792,1.818
			c-0.155,0.157-0.155,0.414,0,0.571c0.08,0.079,0.182,0.12,0.282,0.12c0.106,0,0.207-0.041,0.284-0.12L105.418,44.398z"/>
		<path fill="#FFFFFF" d="M120.6,43.823c-0.157-0.153-0.409-0.153-0.562,0c-0.158,0.157-0.158,0.414,0,0.575l1.788,1.811
			c0.081,0.083,0.182,0.124,0.283,0.124c0.101,0,0.207-0.041,0.282-0.124c0.157-0.153,0.157-0.41,0-0.567L120.6,43.823z"/>
		<path fill="#FFFFFF" d="M104.856,29.01c0.075,0.078,0.178,0.116,0.278,0.116c0.102,0,0.206-0.038,0.288-0.116
			c0.153-0.157,0.153-0.419,0-0.572l-1.796-1.818c-0.153-0.157-0.409-0.157-0.566,0c-0.155,0.162-0.155,0.414,0,0.576L104.856,29.01
			z"/>
		<path fill="#FFFFFF" d="M116.464,26.205c-0.084,0.211,0.012,0.451,0.214,0.534c0.054,0.021,0.106,0.033,0.155,0.033
			c0.157,0,0.307-0.1,0.372-0.257l0.967-2.369c0.086-0.203-0.013-0.443-0.215-0.53c-0.206-0.083-0.438,0.017-0.521,0.22
			L116.464,26.205z"/>
		<path fill="#FFFFFF" d="M108.986,46.623c0.086-0.207-0.012-0.443-0.214-0.525c-0.203-0.088-0.436,0.008-0.525,0.215l-0.971,2.374
			c-0.082,0.207,0.016,0.442,0.219,0.53c0.049,0.021,0.104,0.028,0.153,0.028c0.157,0,0.309-0.091,0.372-0.244L108.986,46.623z"/>
		<path fill="#FFFFFF" d="M122.49,31.876c-0.202,0.087-0.301,0.327-0.215,0.53c0.063,0.157,0.21,0.257,0.368,0.257
			c0.053,0,0.104-0.013,0.153-0.033l2.344-0.985c0.202-0.083,0.298-0.319,0.215-0.53c-0.086-0.203-0.317-0.303-0.523-0.216
			L122.49,31.876z"/>
		<path fill="#FFFFFF" d="M102.961,40.952c0.202-0.083,0.3-0.319,0.219-0.521c-0.088-0.216-0.323-0.312-0.525-0.224l-2.34,0.985
			c-0.207,0.083-0.303,0.319-0.219,0.522c0.065,0.157,0.21,0.257,0.374,0.257c0.047,0,0.1-0.009,0.149-0.033L102.961,40.952z"/>
		<path fill="#FFFFFF" d="M125.141,41.192l-2.344-0.985c-0.207-0.088-0.438,0.008-0.521,0.224c-0.086,0.202,0.013,0.438,0.215,0.521
			l2.342,0.986c0.049,0.024,0.102,0.033,0.153,0.033c0.159,0,0.305-0.096,0.37-0.253C125.438,41.512,125.343,41.275,125.141,41.192z
			"/>
		<path fill="#FFFFFF" d="M100.315,31.645l2.34,0.985c0.047,0.021,0.104,0.033,0.153,0.033c0.157,0,0.307-0.1,0.372-0.257
			c0.082-0.203-0.017-0.443-0.219-0.526l-2.342-0.981c-0.206-0.087-0.437,0.013-0.523,0.216
			C100.012,31.325,100.108,31.562,100.315,31.645z"/>
		<path fill="#FFFFFF" d="M117.205,46.313c-0.086-0.207-0.32-0.303-0.527-0.215c-0.202,0.082-0.298,0.318-0.214,0.525l0.973,2.378
			c0.063,0.153,0.21,0.244,0.367,0.244c0.054,0,0.101-0.008,0.153-0.028c0.202-0.088,0.301-0.323,0.219-0.53L117.205,46.313z"/>
		<path fill="#FFFFFF" d="M108.246,26.516c0.065,0.157,0.214,0.257,0.372,0.257c0.049,0,0.106-0.013,0.153-0.033
			c0.202-0.083,0.3-0.323,0.214-0.53l-0.967-2.373c-0.088-0.203-0.319-0.303-0.525-0.22c-0.203,0.087-0.3,0.327-0.215,0.53
			L108.246,26.516z"/>
	</g>
	<polygon fill="#9E1F63" points="114.841,33.31 118.642,30.857 116.227,34.705 	"/>
	<path fill="#9E1F63" d="M112.726,32.116c-2.501,0-4.537,2.063-4.537,4.599c0,2.53,2.035,4.59,4.537,4.59
		c2.501,0,4.537-2.06,4.537-4.59C117.263,34.18,115.227,32.116,112.726,32.116z"/>
</g>
</svg>
