<?xml version="1.0"?>
<svg width="26" height="40" xmlns="http://www.w3.org/2000/svg">
 <!--Unicode Character 'WASTEBASKET' (U+1F5D1)-->

 <g>
  <title>background</title>
  <rect x="-1" y="-1" width="28" height="42" id="canvas_background" fill="none"/>
 </g>
 <g>
  <title>Layer 1</title>
  <g id="svg_1" stroke="null">
   <g id="svg_2" stroke="null">
    <path d="m25.172167,7.835783q0,1.10544 -0.879322,1.834011q-0.175861,0.15073 -0.351719,0.301489l0,24.043213q0,2.637939 -1.205929,3.441898q-3.266071,2.210873 -9.974052,2.210873q-6.68284,0 -9.94889,-2.210873q-1.20592,-0.803959 -1.20592,-3.441898l0,-24.043213q-0.175879,-0.150759 -0.35174,-0.301489q-0.87933,-0.728571 -0.87933,-1.834011l0,-3.06506q0,-1.55768 1.2813,-2.261109q3.467031,-1.88428 11.10458,-1.88428q7.662691,0 11.129719,1.88428q1.281303,0.703429 1.281303,2.261109l0,3.06506zm-1.231041,-3.266048q0,-1.331551 -5.0247,-2.135501q-3.59267,-0.57785 -6.155281,-0.57785q-2.56258,0 -6.155249,0.57785q-4.999561,0.80395 -4.999561,2.160581q0,1.38184 5.04981,2.085299q3.26605,0.452211 6.13014,0.452211q2.91433,0 6.13014,-0.452211q5.0247,-0.703459 5.0247,-2.110378zm0,2.386719l0,-0.753729q-4.220751,2.16065 -11.179981,2.16065q-6.883829,0 -11.15481,-2.16065l0,0.753729q0,4.19561 11.15481,4.19561q11.179981,0 11.179981,-4.19561zm-1.256191,26.982634l0,-23.314604q-0.854191,0.35174 -1.859129,0.678341l0,23.46533l-1.23106,0.326599l0,-23.46533q-1.507391,0.276371 -3.71826,0.52759l0,23.490482l-1.256191,0l0,-23.490482q-1.50741,0.07538 -1.85915,0.07538q-0.326599,0 -1.859129,-0.07538l0,23.490482l-1.231041,0l0,-23.490482q-2.21088,-0.251219 -3.718279,-0.52759l0,23.46533l-1.231071,-0.326599l0,-23.46533q-1.00494,-0.326601 -1.85913,-0.678341l0,23.314604q0,2.235985 1.43203,2.964569q3.03994,1.532524 8.466619,1.532524q5.45182,0 8.49176,-1.532524q1.43203,-0.728584 1.43203,-2.964569z" id="svg_3" stroke="null"/>
   </g>
  </g>
 </g>
</svg>